<svg width="627" height="50" viewBox="0 0 627 50" fill="none" xmlns="http://www.w3.org/2000/svg">
<path opacity="0.2" d="M42.432 29.416V30.416H44.0331L43.3306 28.9772L42.432 29.416ZM34.432 13.032L35.3306 12.5932L34.4211 10.7305L33.5293 12.6018L34.432 13.032ZM26.624 29.416L25.7213 28.9858L25.0397 30.416H26.624V29.416ZM51.968 49L51.0677 49.4352L51.3407 50H51.968V49ZM48.256 41.32L49.1563 40.8848L48.8833 40.32H48.256V41.32ZM21.056 41.32V40.32H20.4239L20.1527 40.8909L21.056 41.32ZM17.408 49V50H18.0401L18.3113 49.4291L17.408 49ZM-1.024 49L-1.92035 48.5566L-2.63426 50H-1.024V49ZM22.528 1.384V0.383999H21.907L21.6317 0.940645L22.528 1.384ZM46.976 1.384L47.8622 0.92066L47.5816 0.383999H46.976V1.384ZM71.872 49V50H73.5233L72.7582 48.5367L71.872 49ZM43.3306 28.9772L35.3306 12.5932L33.5334 13.4708L41.5334 29.8548L43.3306 28.9772ZM33.5293 12.6018L25.7213 28.9858L27.5267 29.8462L35.3347 13.4622L33.5293 12.6018ZM26.624 30.416H42.432V28.416H26.624V30.416ZM52.8684 48.5648L49.1563 40.8848L47.3557 41.7552L51.0677 49.4352L52.8684 48.5648ZM48.256 40.32H21.056V42.32H48.256V40.32ZM20.1527 40.8909L16.5047 48.5709L18.3113 49.4291L21.9593 41.7491L20.1527 40.8909ZM17.408 48H-1.024V50H17.408V48ZM-0.127654 49.4434L23.4243 1.82735L21.6317 0.940645L-1.92035 48.5566L-0.127654 49.4434ZM22.528 2.384H46.976V0.383999H22.528V2.384ZM46.0898 1.84734L70.9858 49.4633L72.7582 48.5367L47.8622 0.92066L46.0898 1.84734ZM71.872 48H51.968V50H71.872V48ZM73.947 1.384V0.383999H72.947V1.384H73.947ZM125.595 1.384H126.595V0.383999H125.595V1.384ZM125.595 13.032V14.032H126.595V13.032H125.595ZM91.931 13.032V12.032H90.931V13.032H91.931ZM91.931 18.984H90.931V19.984H91.931V18.984ZM124.891 18.984H125.891V17.984H124.891V18.984ZM124.891 30.696V31.696H125.891V30.696H124.891ZM91.931 30.696V29.696H90.931V30.696H91.931ZM91.931 49V50H92.931V49H91.931ZM73.947 49H72.947V50H73.947V49ZM73.947 2.384H125.595V0.383999H73.947V2.384ZM124.595 1.384V13.032H126.595V1.384H124.595ZM125.595 12.032H91.931V14.032H125.595V12.032ZM90.931 13.032V18.984H92.931V13.032H90.931ZM91.931 19.984H124.891V17.984H91.931V19.984ZM123.891 18.984V30.696H125.891V18.984H123.891ZM124.891 29.696H91.931V31.696H124.891V29.696ZM90.931 30.696V49H92.931V30.696H90.931ZM91.931 48H73.947V50H91.931V48ZM74.947 49V1.384H72.947V49H74.947ZM149.061 12.968V11.968H148.061V12.968H149.061ZM149.061 21.16H148.061V22.16H149.061V21.16ZM149.061 32.68V31.68H148.061V32.68H149.061ZM149.061 49V50H150.061V49H149.061ZM130.885 49H129.885V50H130.885V49ZM130.885 1.384V0.383999H129.885V1.384H130.885ZM190.661 21.928L190.055 21.1318L190.048 21.1378L190.04 21.144L190.661 21.928ZM187.589 23.848L187.172 22.9389L187.164 22.9423L187.157 22.9459L187.589 23.848ZM184.581 24.936L184.338 23.9659L184.361 25.9115L184.581 24.936ZM191.749 28.904L191.002 29.5694L191.009 29.5775L191.749 28.904ZM195.268 48.68H196.268V48.4279L196.149 48.2059L195.268 48.68ZM195.268 49V50H196.268V49H195.268ZM176.708 49L175.965 49.669L176.263 50H176.708V49ZM173.893 34.728L173.207 35.4562L173.218 35.4666L173.229 35.4766L173.893 34.728ZM148.061 12.968V21.16H150.061V12.968H148.061ZM149.061 22.16H169.924V20.16H149.061V22.16ZM169.924 22.16C171.854 22.16 173.483 21.8061 174.65 20.9382C175.871 20.0291 176.428 18.6763 176.428 17.064H174.428C174.428 18.1824 174.068 18.8776 173.455 19.3338C172.787 19.8312 171.664 20.16 169.924 20.16V22.16ZM176.428 17.064V17H174.428V17.064H176.428ZM176.428 17C176.428 15.4031 175.867 14.0654 174.643 13.1693C173.478 12.3157 171.852 11.968 169.924 11.968V13.968C171.667 13.968 172.792 14.2923 173.462 14.7827C174.073 15.2306 174.428 15.9089 174.428 17H176.428ZM169.924 11.968H149.061V13.968H169.924V11.968ZM148.061 32.68V49H150.061V32.68H148.061ZM149.061 48H130.885V50H149.061V48ZM131.885 49V1.384H129.885V49H131.885ZM130.885 2.384H174.148V0.383999H130.885V2.384ZM174.148 2.384C180.757 2.384 185.545 3.39795 188.652 5.29362C191.678 7.14031 193.181 9.86418 193.181 13.608H195.181C195.181 9.20248 193.344 5.81435 189.693 3.58638C186.123 1.40738 180.895 0.383999 174.148 0.383999V2.384ZM193.181 13.608V14.312H195.181V13.608H193.181ZM193.181 14.312C193.181 15.7983 192.888 17.1191 192.32 18.2924L194.121 19.1636C194.833 17.6916 195.181 16.0684 195.181 14.312H193.181ZM192.32 18.2924C191.742 19.4873 190.985 20.4254 190.055 21.1318L191.266 22.7242C192.469 21.8092 193.419 20.614 194.121 19.1636L192.32 18.2924ZM190.04 21.144C189.069 21.9126 188.113 22.5078 187.172 22.9389L188.005 24.7571C189.112 24.2496 190.204 23.5647 191.281 22.712L190.04 21.144ZM187.157 22.9459C186.234 23.3871 185.295 23.7266 184.338 23.9659L184.823 25.9061C185.914 25.6334 186.98 25.2475 188.02 24.7501L187.157 22.9459ZM184.361 25.9115C187.224 26.5569 189.415 27.7892 191.002 29.5694L192.495 28.2386C190.583 26.0934 187.995 24.6805 184.8 23.9605L184.361 25.9115ZM191.009 29.5775C192.566 31.2858 193.372 33.4866 193.372 36.264H195.372C195.372 33.0681 194.43 30.3622 192.488 28.2305L191.009 29.5775ZM193.372 36.264V43.304H195.372V36.264H193.372ZM193.372 43.304C193.372 45.8135 193.668 47.8162 194.388 49.1541L196.149 48.2059C195.675 47.3252 195.372 45.7438 195.372 43.304H193.372ZM194.268 48.68V49H196.268V48.68H194.268ZM195.268 48H176.708V50H195.268V48ZM177.452 48.331C177.415 48.2905 177.326 48.1565 177.251 47.8311C177.178 47.5137 177.133 47.0776 177.133 46.504H175.133C175.133 47.1678 175.183 47.7663 175.302 48.2809C175.419 48.7875 175.618 49.2829 175.965 49.669L177.452 48.331ZM177.133 46.504V40.936H175.133V46.504H177.133ZM177.133 40.936C177.133 37.9553 176.34 35.5598 174.556 33.9794L173.229 35.4766C174.432 36.5415 175.133 38.2847 175.133 40.936H177.133ZM174.578 33.9998C172.844 32.3681 170.046 31.68 166.469 31.68V33.68C169.889 33.68 172.04 34.3572 173.207 35.4562L174.578 33.9998ZM166.469 31.68H149.061V33.68H166.469V31.68ZM246.686 1.384L246.516 2.36948L246.53 2.37166L246.686 1.384ZM255.454 3.624L255.083 4.55247L255.093 4.55651L255.103 4.56033L255.454 3.624ZM261.663 7.016L261.047 7.80432L261.058 7.81259L261.069 7.82057L261.663 7.016ZM265.887 11.048L266.686 10.448V10.448L265.887 11.048ZM268.319 15.528L267.38 15.8737L267.384 15.8845L267.388 15.8952L268.319 15.528ZM269.534 19.944L268.543 20.072L268.545 20.0876L268.547 20.1032L269.534 19.944ZM269.534 30.184L268.547 30.0248L268.545 30.0404L268.543 30.056L269.534 30.184ZM268.319 34.664L267.385 34.305L267.383 34.3116L267.38 34.3183L268.319 34.664ZM265.887 39.208L265.078 38.6198L265.074 38.6244L265.887 39.208ZM261.727 43.304L261.12 42.5086L261.727 43.304ZM255.518 46.76L255.89 47.6885L255.518 46.76ZM246.751 49L246.594 48.0122L246.58 48.0146L246.751 49ZM220.639 49L220.807 48.0142L220.797 48.0126L220.639 49ZM211.87 46.76L211.499 47.6885L211.505 47.6908L211.87 46.76ZM205.663 43.304L205.056 44.0994L205.663 43.304ZM201.439 39.208L200.618 39.7798L200.628 39.7941L200.639 39.808L201.439 39.208ZM199.007 34.664L198.065 35.0019L198.071 35.0166L198.076 35.0312L199.007 34.664ZM197.79 30.184L196.799 30.312L196.801 30.3276L196.803 30.3432L197.79 30.184ZM197.79 19.944L196.803 19.7848L196.801 19.8004L196.799 19.816L197.79 19.944ZM199.007 15.528L198.076 15.1608L198.072 15.1715L198.068 15.1823L199.007 15.528ZM201.439 11.048L200.639 10.448L200.632 10.4561L200.626 10.4644L201.439 11.048ZM205.663 7.016L206.256 7.82057L206.262 7.81605L206.269 7.81143L205.663 7.016ZM211.87 3.624L212.227 4.55826L212.236 4.55475L211.87 3.624ZM220.639 1.384L220.797 2.37141L220.807 2.36974L220.639 1.384ZM250.271 20.648L249.346 21.0304L249.351 21.0419L250.271 20.648ZM247.646 17.064L246.952 17.7838L246.959 17.7899L246.965 17.7959L247.646 17.064ZM242.271 14.312L242.545 13.3505L242.271 14.312ZM224.991 14.312L224.716 13.3505L224.991 14.312ZM219.615 17.064L220.309 17.7838L219.615 17.064ZM217.055 20.648L216.13 20.2656L216.127 20.274L216.124 20.2823L217.055 20.648ZM217.118 29.352L216.19 29.7234L216.194 29.7344L217.118 29.352ZM219.678 33.064L218.959 33.7586L218.965 33.7649L218.971 33.7711L219.678 33.064ZM225.055 35.944L224.764 36.9009L224.769 36.9023L225.055 35.944ZM242.271 36.008L242.545 36.9696L242.556 36.9663L242.271 36.008ZM247.711 33.128L248.418 33.8351L247.711 33.128ZM250.271 29.48L251.195 29.8624L251.199 29.8514L250.271 29.48ZM232.286 1.488H235.167V-0.512001H232.286V1.488ZM235.167 1.488C239.345 1.488 243.126 1.78351 246.516 2.36939L246.857 0.398609C243.335 -0.210175 239.436 -0.512001 235.167 -0.512001V1.488ZM246.53 2.37166C249.982 2.91893 252.827 3.65004 255.083 4.55247L255.826 2.69552C253.389 1.72063 250.388 0.958401 246.843 0.396334L246.53 2.37166ZM255.103 4.56033C257.412 5.42592 259.389 6.51 261.047 7.80432L262.278 6.22768C260.437 4.79133 258.276 3.61408 255.806 2.68767L255.103 4.56033ZM261.069 7.82057C262.805 9.10201 264.136 10.3801 265.087 11.648L266.686 10.448C265.589 8.98525 264.104 7.57532 262.256 6.21143L261.069 7.82057ZM265.087 11.648C266.052 12.9348 266.816 14.3423 267.38 15.8737L269.257 15.1823C268.626 13.4711 267.769 11.8919 266.686 10.448L265.087 11.648ZM267.388 15.8952C268.007 17.4617 268.385 18.8519 268.543 20.072L270.526 19.816C270.342 18.3908 269.91 16.837 269.249 15.1608L267.388 15.8952ZM268.547 20.1032C268.751 21.3691 268.854 22.7023 268.854 24.104H270.854C270.854 22.6043 270.744 21.1642 270.522 19.7848L268.547 20.1032ZM268.854 24.104V26.024H270.854V24.104H268.854ZM268.854 26.024C268.854 27.4257 268.751 28.7589 268.547 30.0248L270.522 30.3432C270.744 28.9638 270.854 27.5237 270.854 26.024H268.854ZM268.543 30.056C268.385 31.2783 268.005 32.6922 267.385 34.305L269.252 35.023C269.912 33.3078 270.343 31.7351 270.526 30.312L268.543 30.056ZM267.38 34.3183C266.815 35.8526 266.048 37.2857 265.078 38.6198L266.695 39.7962C267.773 38.3143 268.627 36.7181 269.257 35.0097L267.38 34.3183ZM265.074 38.6244C264.167 39.8873 262.859 41.1842 261.12 42.5086L262.333 44.0994C264.178 42.6931 265.644 41.2594 266.699 39.7916L265.074 38.6244ZM261.12 42.5086C259.408 43.813 257.42 44.9224 255.147 45.8315L255.89 47.6885C258.31 46.7203 260.461 45.5257 262.333 44.0994L261.12 42.5086ZM255.147 45.8315C252.891 46.734 250.046 47.4651 246.594 48.0123L246.907 49.9877C250.452 49.4256 253.453 48.6634 255.89 47.6885L255.147 45.8315ZM246.58 48.0146C243.191 48.6004 239.388 48.896 235.167 48.896V50.896C239.478 50.896 243.398 50.5943 246.921 49.9854L246.58 48.0146ZM235.167 48.896H232.286V50.896H235.167V48.896ZM232.286 48.896C228.065 48.896 224.24 48.6004 220.807 48.0143L220.47 49.9857C224.034 50.5942 227.974 50.896 232.286 50.896V48.896ZM220.797 48.0126C217.388 47.4655 214.54 46.7341 212.236 45.8292L211.505 47.6908C213.98 48.6632 216.977 49.4251 220.48 49.9874L220.797 48.0126ZM212.242 45.8315C209.969 44.9224 207.981 43.813 206.269 42.5086L205.056 44.0994C206.928 45.5257 209.079 46.7203 211.499 47.6885L212.242 45.8315ZM206.269 42.5086C204.528 41.1824 203.193 39.8803 202.238 38.608L200.639 39.808C201.732 41.2663 203.213 42.6949 205.056 44.0994L206.269 42.5086ZM202.259 38.6362C201.323 37.2929 200.549 35.8471 199.937 34.2968L198.076 35.0312C198.744 36.7236 199.592 38.3071 200.618 39.7798L202.259 38.6362ZM199.948 34.3261C199.365 32.7029 198.979 31.2709 198.778 30.0248L196.803 30.3432C197.029 31.7424 197.453 33.2971 198.065 35.0019L199.948 34.3261ZM198.782 30.056C198.618 28.7793 198.535 27.4356 198.535 26.024H196.535C196.535 27.5138 196.622 28.9434 196.799 30.312L198.782 30.056ZM198.535 26.024V24.104H196.535V26.024H198.535ZM198.535 24.104C198.535 22.6924 198.618 21.3487 198.782 20.072L196.799 19.816C196.622 21.1846 196.535 22.6142 196.535 24.104H198.535ZM198.778 20.1032C198.978 18.8593 199.364 17.451 199.945 15.8737L198.068 15.1823C197.455 16.8477 197.029 18.3833 196.803 19.7848L198.778 20.1032ZM199.937 15.8952C200.547 14.3478 201.319 12.9275 202.251 11.6316L200.626 10.4644C199.595 11.8991 198.746 13.4656 198.076 15.1608L199.937 15.8952ZM202.238 11.648C203.189 10.3801 204.52 9.10201 206.256 7.82057L205.069 6.21143C203.221 7.57532 201.736 8.98525 200.639 10.448L202.238 11.648ZM206.269 7.81143C207.976 6.51027 209.96 5.42398 212.227 4.55821L211.514 2.68978C209.088 3.61602 206.933 4.79107 205.056 6.22057L206.269 7.81143ZM212.236 4.55475C214.54 3.64986 217.388 2.91845 220.797 2.37136L220.48 0.396635C216.977 0.958878 213.98 1.72081 211.505 2.69324L212.236 4.55475ZM220.807 2.36974C224.24 1.78357 228.065 1.488 232.286 1.488V-0.512001C227.974 -0.512001 224.034 -0.210234 220.47 0.398262L220.807 2.36974ZM252.038 25.448V24.552H250.038V25.448H252.038ZM252.038 24.552C252.038 23.02 251.759 21.5833 251.19 20.2541L249.351 21.0419C249.806 22.102 250.038 23.268 250.038 24.552H252.038ZM251.195 20.2656C250.615 18.8657 249.644 17.557 248.328 16.3321L246.965 17.7959C248.124 18.875 248.902 19.9556 249.346 21.0303L251.195 20.2656ZM248.341 16.3442C246.984 15.0358 245.02 14.0575 242.545 13.3505L241.996 15.2735C244.3 15.9318 245.92 16.7882 246.952 17.7838L248.341 16.3442ZM242.545 13.3505C240.042 12.6353 237.086 12.288 233.695 12.288V14.288C236.959 14.288 239.72 14.6233 241.996 15.2735L242.545 13.3505ZM233.695 12.288C230.22 12.288 227.221 12.6348 224.716 13.3505L225.265 15.2735C227.539 14.6239 230.342 14.288 233.695 14.288V12.288ZM224.716 13.3505C222.241 14.0575 220.277 15.0358 218.92 16.3442L220.309 17.7838C221.341 16.7882 222.961 15.9318 225.265 15.2735L224.716 13.3505ZM218.92 16.3442C217.65 17.5694 216.706 18.8746 216.13 20.2656L217.979 21.0303C218.427 19.9467 219.19 18.8626 220.309 17.7838L218.92 16.3442ZM216.124 20.2823C215.604 21.6043 215.35 23.031 215.35 24.552H217.35C217.35 23.257 217.566 22.081 217.985 21.0137L216.124 20.2823ZM215.35 24.552V25.32H217.35V24.552H215.35ZM215.35 25.32C215.35 26.8524 215.63 28.3227 216.19 29.7234L218.047 28.9806C217.583 27.8213 217.35 26.6036 217.35 25.32H215.35ZM216.194 29.7344C216.766 31.1155 217.701 32.4555 218.959 33.7586L220.398 32.3694C219.267 31.1979 218.495 30.0632 218.043 28.9696L216.194 29.7344ZM218.971 33.7711C220.325 35.1244 222.287 36.1489 224.764 36.9009L225.345 34.9871C223.043 34.2884 221.422 33.393 220.386 32.3569L218.971 33.7711ZM224.769 36.9023C227.317 37.6623 230.298 38.032 233.695 38.032V36.032C230.435 36.032 227.656 35.6763 225.34 34.9857L224.769 36.9023ZM233.695 38.032C237.086 38.032 240.042 37.6847 242.545 36.9695L241.996 35.0465C239.72 35.6966 236.959 36.032 233.695 36.032V38.032ZM242.556 36.9663C245.074 36.2154 247.061 35.1915 248.418 33.8351L247.003 32.4209C245.97 33.4538 244.331 34.3499 241.985 35.0497L242.556 36.9663ZM248.418 33.8351C249.682 32.5709 250.621 31.2484 251.195 29.8624L249.346 29.0976C248.896 30.1863 248.129 31.2957 247.003 32.4209L248.418 33.8351ZM251.199 29.8514C251.759 28.4507 252.038 26.9804 252.038 25.448H250.038C250.038 26.7316 249.806 27.9493 249.342 29.1086L251.199 29.8514ZM272.208 32.36V31.36H271.208V32.36H272.208ZM292.177 32.36L293.174 32.284L293.103 31.36H292.177V32.36ZM310.737 38.76L310.867 39.7515L310.88 39.7498L310.892 39.7478L310.737 38.76ZM314.32 37.736L314.806 38.6102L314.824 38.6001L314.842 38.5893L314.32 37.736ZM315.857 36.328L314.993 35.8241L314.985 35.8365L314.979 35.8491L315.857 36.328ZM315.6 32.424L314.808 33.0337L314.834 33.0679L314.863 33.0997L315.6 32.424ZM312.401 31.016L312.152 31.9847L312.167 31.9883L312.181 31.9916L312.401 31.016ZM305.104 30.248L305.076 31.2476L305.078 31.2476L305.104 30.248ZM296.272 29.992L296.301 28.9924L296.3 28.9924L296.272 29.992ZM273.616 10.6L274.559 10.9344L274.562 10.9251L273.616 10.6ZM276.177 6.632L275.458 5.93697L276.177 6.632ZM281.04 3.432L281.432 4.35215L281.04 3.432ZM288.913 1.384L289.068 2.37182L289.079 2.37004L288.913 1.384ZM334.928 16.104V17.104H335.928V16.104H334.928ZM315.152 16.104L314.159 16.2172L314.26 17.104H315.152V16.104ZM296.081 11.624L296.286 12.6025L296.299 12.6L296.311 12.5971L296.081 11.624ZM293.073 12.84L293.816 13.509L293.832 13.4915L293.846 13.4732L293.073 12.84ZM293.137 16.424L292.397 17.0967L292.413 17.1143L292.429 17.1311L293.137 16.424ZM296.208 17.704L295.972 18.6757L295.985 18.6787L295.997 18.6814L296.208 17.704ZM302.865 18.28L302.887 17.2802L302.879 17.2801L302.865 18.28ZM311.44 18.472L311.469 17.4724L311.463 17.4722L311.44 18.472ZM330.768 22.248L330.265 23.1122L330.272 23.1162L330.768 22.248ZM335.953 38.504L336.91 38.794L336.912 38.7862L335.953 38.504ZM333.393 42.856L334.142 43.5176L334.147 43.5122L334.152 43.5068L333.393 42.856ZM328.272 46.568L328.697 47.4733L328.705 47.4695L328.272 46.568ZM319.697 49L319.861 49.9864L319.87 49.9848L319.697 49ZM307.089 48.896H301.264V50.896H307.089V48.896ZM301.264 48.896C291.643 48.896 284.591 47.4915 279.975 44.8075C275.442 42.1718 273.208 38.2782 273.208 33H271.208C271.208 38.9858 273.817 43.5402 278.97 46.5365C284.039 49.4845 291.515 50.896 301.264 50.896V48.896ZM273.208 33V32.36H271.208V33H273.208ZM272.208 33.36H292.177V31.36H272.208V33.36ZM291.179 32.436C291.376 35.0143 292.647 36.9896 294.917 38.2708C297.12 39.5144 300.213 40.08 304.081 40.08V38.08C300.354 38.08 297.665 37.5256 295.9 36.5292C294.202 35.5704 293.319 34.1857 293.174 32.284L291.179 32.436ZM304.081 40.08H304.656V38.08H304.081V40.08ZM304.656 40.08C307.113 40.08 309.187 39.9725 310.867 39.7515L310.606 37.7685C309.043 37.9742 307.064 38.08 304.656 38.08V40.08ZM310.892 39.7478C312.547 39.4865 313.882 39.1236 314.806 38.6102L313.835 36.8618C313.223 37.2018 312.169 37.5215 310.581 37.7722L310.892 39.7478ZM314.842 38.5893C315.669 38.0837 316.355 37.502 316.734 36.8069L314.979 35.8491C314.846 36.0927 314.508 36.4496 313.799 36.8827L314.842 38.5893ZM316.72 36.8319C317.115 36.1548 317.305 35.4025 317.305 34.6H315.305C315.305 35.0775 315.195 35.4772 314.993 35.8241L316.72 36.8319ZM317.305 34.6V34.536H315.305V34.6H317.305ZM317.305 34.536C317.305 33.4647 317.021 32.4933 316.338 31.7483L314.863 33.0997C315.119 33.3787 315.305 33.8153 315.305 34.536H317.305ZM316.393 31.8143C316.031 31.3432 315.48 31.0032 314.883 30.7407C314.27 30.4706 313.508 30.2403 312.62 30.0404L312.181 31.9916C312.999 32.1757 313.625 32.372 314.078 32.5713C314.548 32.7781 314.744 32.9501 314.808 33.0337L316.393 31.8143ZM312.649 30.0473C310.875 29.5925 308.354 29.3343 305.131 29.2484L305.078 31.2476C308.255 31.3324 310.598 31.5862 312.152 31.9847L312.649 30.0473ZM305.133 29.2484L296.301 28.9924L296.244 30.9916L305.076 31.2476L305.133 29.2484ZM296.3 28.9924C288.58 28.7809 282.948 27.4896 279.276 25.2357C275.678 23.0281 273.913 19.8734 273.913 15.656H271.913C271.913 20.5693 274.04 24.3692 278.229 26.9403C282.343 29.4651 288.392 30.7765 296.245 30.9916L296.3 28.9924ZM273.913 15.656V15.08H271.913V15.656H273.913ZM273.913 15.08C273.913 13.5093 274.134 12.1318 274.559 10.9344L272.674 10.2656C272.16 11.7135 271.913 13.3227 271.913 15.08H273.913ZM274.562 10.9251C274.974 9.72655 275.737 8.52575 276.895 7.32702L275.458 5.93697C274.142 7.29825 273.197 8.74277 272.671 10.2749L274.562 10.9251ZM276.895 7.32702C278.021 6.16219 279.523 5.16453 281.432 4.35215L280.649 2.51184C278.547 3.40613 276.806 4.54181 275.458 5.93697L276.895 7.32702ZM281.432 4.35215C283.334 3.54272 285.87 2.87672 289.068 2.37176L288.757 0.396236C285.469 0.915272 282.757 1.6146 280.649 2.51184L281.432 4.35215ZM289.079 2.37004C292.296 1.8269 296.036 1.552 300.305 1.552V-0.448002C295.955 -0.448002 292.1 -0.168236 288.746 0.397953L289.079 2.37004ZM300.305 1.552H306V-0.448002H300.305V1.552ZM306 1.552C315.589 1.552 322.628 2.80375 327.235 5.19925C329.524 6.38937 331.186 7.84761 332.279 9.55173C333.368 11.2515 333.928 13.2525 333.928 15.592H335.928C335.928 12.9182 335.283 10.5325 333.962 8.47227C332.644 6.41638 330.69 4.74129 328.158 3.42475C323.123 0.806913 315.697 -0.448002 306 -0.448002V1.552ZM333.928 15.592V16.104H335.928V15.592H333.928ZM334.928 15.104H315.152V17.104H334.928V15.104ZM316.146 15.9908C315.904 13.864 314.543 12.3426 312.386 11.3963C310.279 10.4713 307.331 10.048 303.633 10.048V12.048C307.23 12.048 309.85 12.4674 311.583 13.2277C313.266 13.9667 314.017 14.9734 314.159 16.2172L316.146 15.9908ZM303.633 10.048H302.992V12.048H303.633V10.048ZM302.992 10.048C299.979 10.048 297.584 10.2402 295.85 10.6509L296.311 12.5971C297.82 12.2398 300.033 12.048 302.992 12.048V10.048ZM295.874 10.6454C295.033 10.8226 294.314 11.0238 293.738 11.2569C293.185 11.4802 292.651 11.7764 292.299 12.2068L293.846 13.4732C293.878 13.4342 294.037 13.2931 294.487 13.1111C294.913 12.9389 295.507 12.7667 296.286 12.6025L295.874 10.6454ZM292.329 12.171C291.74 12.826 291.496 13.6631 291.496 14.568H293.496C293.496 14.0222 293.637 13.7074 293.816 13.509L292.329 12.171ZM291.496 14.568V14.632H293.496V14.568H291.496ZM291.496 14.632C291.496 15.5679 291.779 16.4168 292.397 17.0967L293.876 15.7513C293.641 15.4925 293.496 15.1468 293.496 14.632H291.496ZM292.429 17.1311C292.798 17.4999 293.309 17.7847 293.872 18.0191C294.448 18.2593 295.153 18.4765 295.972 18.6757L296.445 16.7323C295.685 16.5475 295.089 16.3593 294.641 16.1729C294.18 15.9806 293.944 15.8175 293.844 15.7169L292.429 17.1311ZM295.997 18.6814C297.672 19.0434 299.967 19.2369 302.85 19.2799L302.879 17.2801C300.045 17.2378 297.903 17.0472 296.42 16.7266L295.997 18.6814ZM302.842 19.2797L311.418 19.4717L311.463 17.4722L302.887 17.2803L302.842 19.2797ZM311.412 19.4716C320.384 19.7267 326.611 20.9839 330.265 23.1121L331.272 21.3839C327.161 18.9894 320.503 17.7293 311.469 17.4724L311.412 19.4716ZM330.272 23.1162C333.815 25.1405 335.592 28.3113 335.592 32.808H337.592C337.592 27.6621 335.488 23.7928 331.265 21.3798L330.272 23.1162ZM335.592 32.808V33.704H337.592V32.808H335.592ZM335.592 33.704C335.592 35.3724 335.389 36.8758 334.993 38.2218L336.912 38.7862C337.369 37.2308 337.592 35.5342 337.592 33.704H335.592ZM334.995 38.214C334.62 39.4527 333.852 40.7835 332.633 42.2052L334.152 43.5068C335.493 41.9418 336.432 40.3713 336.91 38.794L334.995 38.214ZM332.643 42.1944C331.469 43.5249 329.879 44.6878 327.84 45.6665L328.705 47.4695C330.933 46.4002 332.756 45.0884 334.142 43.5176L332.643 42.1944ZM327.848 45.6628C325.87 46.5912 323.107 47.3826 319.523 48.0152L319.87 49.9848C323.539 49.3374 326.494 48.5074 328.697 47.4732L327.848 45.6628ZM319.532 48.0136C316.017 48.5995 311.871 48.896 307.089 48.896V50.896C311.948 50.896 316.208 50.5952 319.861 49.9864L319.532 48.0136ZM388.249 1.384L388.079 2.36948L388.092 2.37166L388.249 1.384ZM397.017 3.624L396.646 4.55247L396.656 4.55651L396.666 4.56033L397.017 3.624ZM403.225 7.016L402.61 7.80432L402.62 7.81259L402.631 7.82057L403.225 7.016ZM407.449 11.048L408.249 10.448V10.448L407.449 11.048ZM409.881 15.528L408.943 15.8737L408.947 15.8845L408.951 15.8952L409.881 15.528ZM411.097 19.944L410.105 20.072L410.107 20.0876L410.11 20.1032L411.097 19.944ZM411.097 30.184L410.11 30.0248L410.107 30.0404L410.105 30.056L411.097 30.184ZM409.881 34.664L408.948 34.305L408.945 34.3116L408.943 34.3183L409.881 34.664ZM407.449 39.208L406.64 38.6198L406.637 38.6244L407.449 39.208ZM403.289 43.304L402.683 42.5086L403.289 43.304ZM397.081 46.76L397.452 47.6885L397.081 46.76ZM388.313 49L388.156 48.0122L388.143 48.0146L388.313 49ZM362.201 49L362.369 48.0142L362.359 48.0126L362.201 49ZM353.433 46.76L353.062 47.6885L353.067 47.6908L353.433 46.76ZM347.225 43.304L346.619 44.0994L347.225 43.304ZM343.001 39.208L342.181 39.7798L342.191 39.7941L342.201 39.808L343.001 39.208ZM340.569 34.664L339.628 35.0019L339.633 35.0166L339.639 35.0312L340.569 34.664ZM339.353 30.184L338.361 30.312L338.363 30.3276L338.366 30.3432L339.353 30.184ZM339.353 19.944L338.366 19.7848L338.363 19.8004L338.361 19.816L339.353 19.944ZM340.569 15.528L339.639 15.1608L339.635 15.1715L339.631 15.1823L340.569 15.528ZM343.001 11.048L342.201 10.448L342.195 10.4561L342.189 10.4644L343.001 11.048ZM347.225 7.016L347.819 7.82057L347.825 7.81605L347.831 7.81143L347.225 7.016ZM353.433 3.624L353.79 4.55826L353.799 4.55475L353.433 3.624ZM362.201 1.384L362.359 2.37141L362.369 2.36974L362.201 1.384ZM391.833 20.648L390.909 21.0304L390.914 21.0419L391.833 20.648ZM389.209 17.064L388.515 17.7838L388.521 17.7899L388.528 17.7959L389.209 17.064ZM383.833 14.312L384.108 13.3505L383.833 14.312ZM366.553 14.312L366.278 13.3505L366.553 14.312ZM361.177 17.064L361.871 17.7838L361.177 17.064ZM358.617 20.648L357.693 20.2656L357.69 20.274L357.686 20.2823L358.617 20.648ZM358.681 29.352L357.752 29.7234L357.757 29.7344L358.681 29.352ZM361.241 33.064L360.522 33.7586L360.528 33.7649L360.534 33.7711L361.241 33.064ZM366.617 35.944L366.327 36.9009L366.331 36.9023L366.617 35.944ZM383.833 36.008L384.108 36.9696L384.119 36.9663L383.833 36.008ZM389.273 33.128L389.98 33.8351L389.273 33.128ZM391.833 29.48L392.757 29.8624L392.761 29.8514L391.833 29.48ZM373.849 1.488H376.729V-0.512001H373.849V1.488ZM376.729 1.488C380.907 1.488 384.689 1.78351 388.079 2.36939L388.419 0.398609C384.897 -0.210175 380.999 -0.512001 376.729 -0.512001V1.488ZM388.092 2.37166C391.544 2.91893 394.39 3.65004 396.646 4.55247L397.388 2.69552C394.951 1.72063 391.951 0.958401 388.406 0.396334L388.092 2.37166ZM396.666 4.56033C398.974 5.42592 400.951 6.51 402.61 7.80432L403.84 6.22768C402 4.79133 399.839 3.61408 397.368 2.68767L396.666 4.56033ZM402.631 7.82057C404.367 9.10201 405.698 10.3801 406.649 11.648L408.249 10.448C407.152 8.98525 405.667 7.57532 403.819 6.21143L402.631 7.82057ZM406.649 11.648C407.614 12.9348 408.378 14.3423 408.943 15.8737L410.819 15.1823C410.189 13.4711 409.332 11.8919 408.249 10.448L406.649 11.648ZM408.951 15.8952C409.569 17.4617 409.948 18.8519 410.105 20.072L412.089 19.816C411.905 18.3908 411.473 16.837 410.811 15.1608L408.951 15.8952ZM410.11 20.1032C410.314 21.3691 410.417 22.7023 410.417 24.104H412.417C412.417 22.6043 412.307 21.1642 412.084 19.7848L410.11 20.1032ZM410.417 24.104V26.024H412.417V24.104H410.417ZM410.417 26.024C410.417 27.4257 410.314 28.7589 410.11 30.0248L412.084 30.3432C412.307 28.9638 412.417 27.5237 412.417 26.024H410.417ZM410.105 30.056C409.948 31.2783 409.568 32.6922 408.948 34.305L410.814 35.023C411.474 33.3078 411.905 31.7351 412.089 30.312L410.105 30.056ZM408.943 34.3183C408.377 35.8526 407.611 37.2857 406.64 38.6198L408.258 39.7962C409.335 38.3143 410.19 36.7181 410.819 35.0097L408.943 34.3183ZM406.637 38.6244C405.729 39.8873 404.421 41.1842 402.683 42.5086L403.895 44.0994C405.741 42.6931 407.206 41.2594 408.261 39.7916L406.637 38.6244ZM402.683 42.5086C400.971 43.813 398.982 44.9224 396.71 45.8315L397.452 47.6885C399.873 46.7203 402.023 45.5257 403.895 44.0994L402.683 42.5086ZM396.71 45.8315C394.454 46.734 391.608 47.4651 388.156 48.0123L388.47 49.9877C392.015 49.4256 395.015 48.6634 397.452 47.6885L396.71 45.8315ZM388.143 48.0146C384.753 48.6004 380.95 48.896 376.729 48.896V50.896C381.041 50.896 384.961 50.5943 388.483 49.9854L388.143 48.0146ZM376.729 48.896H373.849V50.896H376.729V48.896ZM373.849 48.896C369.628 48.896 365.803 48.6004 362.369 48.0143L362.033 49.9857C365.597 50.5942 369.537 50.896 373.849 50.896V48.896ZM362.359 48.0126C358.951 47.4655 356.102 46.7341 353.799 45.8292L353.067 47.6908C355.543 48.6632 358.539 49.4251 362.043 49.9874L362.359 48.0126ZM353.804 45.8315C351.532 44.9224 349.543 43.813 347.831 42.5086L346.619 44.0994C348.491 45.5257 350.641 46.7203 353.062 47.6885L353.804 45.8315ZM347.831 42.5086C346.09 41.1824 344.755 39.8803 343.801 38.608L342.201 39.808C343.295 41.2663 344.776 42.6949 346.619 44.0994L347.831 42.5086ZM343.821 38.6362C342.885 37.2929 342.111 35.8471 341.499 34.2968L339.639 35.0312C340.307 36.7236 341.154 38.3071 342.181 39.7798L343.821 38.6362ZM341.51 34.3261C340.928 32.7029 340.541 31.2709 340.34 30.0248L338.366 30.3432C338.591 31.7424 339.016 33.2971 339.628 35.0019L341.51 34.3261ZM340.345 30.056C340.18 28.7793 340.097 27.4356 340.097 26.024H338.097C338.097 27.5138 338.185 28.9434 338.361 30.312L340.345 30.056ZM340.097 26.024V24.104H338.097V26.024H340.097ZM340.097 24.104C340.097 22.6924 340.18 21.3487 340.345 20.072L338.361 19.816C338.185 21.1846 338.097 22.6142 338.097 24.104H340.097ZM340.34 20.1032C340.541 18.8593 340.926 17.451 341.507 15.8737L339.631 15.1823C339.017 16.8477 338.592 18.3833 338.366 19.7848L340.34 20.1032ZM341.499 15.8952C342.11 14.3478 342.882 12.9275 343.813 11.6316L342.189 10.4644C341.158 11.8991 340.308 13.4656 339.639 15.1608L341.499 15.8952ZM343.801 11.648C344.752 10.3801 346.083 9.10201 347.819 7.82057L346.631 6.21143C344.783 7.57532 343.298 8.98525 342.201 10.448L343.801 11.648ZM347.831 7.81143C349.539 6.51027 351.522 5.42398 353.79 4.55821L353.076 2.68978C350.65 3.61602 348.495 4.79107 346.619 6.22057L347.831 7.81143ZM353.799 4.55475C356.102 3.64986 358.951 2.91845 362.359 2.37136L362.043 0.396635C358.539 0.958878 355.543 1.72081 353.067 2.69324L353.799 4.55475ZM362.369 2.36974C365.803 1.78357 369.628 1.488 373.849 1.488V-0.512001C369.537 -0.512001 365.597 -0.210234 362.033 0.398262L362.369 2.36974ZM393.601 25.448V24.552H391.601V25.448H393.601ZM393.601 24.552C393.601 23.02 393.322 21.5833 392.752 20.2541L390.914 21.0419C391.368 22.102 391.601 23.268 391.601 24.552H393.601ZM392.757 20.2656C392.178 18.8657 391.206 17.557 389.89 16.3321L388.528 17.7959C389.687 18.875 390.464 19.9556 390.909 21.0303L392.757 20.2656ZM389.903 16.3442C388.546 15.0358 386.582 14.0575 384.108 13.3505L383.558 15.2735C385.862 15.9318 387.482 16.7882 388.515 17.7838L389.903 16.3442ZM384.108 13.3505C381.605 12.6353 378.649 12.288 375.257 12.288V14.288C378.521 14.288 381.283 14.6233 383.558 15.2735L384.108 13.3505ZM375.257 12.288C371.783 12.288 368.783 12.6348 366.278 13.3505L366.828 15.2735C369.101 14.6239 371.905 14.288 375.257 14.288V12.288ZM366.278 13.3505C363.804 14.0575 361.84 15.0358 360.483 16.3442L361.871 17.7838C362.904 16.7882 364.524 15.9318 366.828 15.2735L366.278 13.3505ZM360.483 16.3442C359.212 17.5694 358.269 18.8746 357.693 20.2656L359.541 21.0303C359.989 19.9467 360.752 18.8626 361.871 17.7838L360.483 16.3442ZM357.686 20.2823C357.167 21.6043 356.913 23.031 356.913 24.552H358.913C358.913 23.257 359.128 22.081 359.548 21.0137L357.686 20.2823ZM356.913 24.552V25.32H358.913V24.552H356.913ZM356.913 25.32C356.913 26.8524 357.192 28.3227 357.753 29.7234L359.609 28.9806C359.146 27.8213 358.913 26.6036 358.913 25.32H356.913ZM357.757 29.7344C358.328 31.1155 359.263 32.4555 360.522 33.7586L361.96 32.3694C360.829 31.1979 360.057 30.0632 359.605 28.9696L357.757 29.7344ZM360.534 33.7711C361.887 35.1244 363.849 36.1489 366.327 36.9009L366.907 34.9871C364.606 34.2884 362.984 33.393 361.948 32.3569L360.534 33.7711ZM366.331 36.9023C368.88 37.6623 371.86 38.032 375.257 38.032V36.032C371.998 36.032 369.218 35.6763 366.903 34.9857L366.331 36.9023ZM375.257 38.032C378.649 38.032 381.605 37.6847 384.108 36.9695L383.558 35.0465C381.283 35.6966 378.521 36.032 375.257 36.032V38.032ZM384.119 36.9663C386.636 36.2154 388.624 35.1915 389.98 33.8351L388.566 32.4209C387.533 33.4538 385.894 34.3499 383.547 35.0497L384.119 36.9663ZM389.98 33.8351C391.244 32.5709 392.183 31.2484 392.757 29.8624L390.909 29.0976C390.459 30.1863 389.691 31.2957 388.566 32.4209L389.98 33.8351ZM392.761 29.8514C393.322 28.4507 393.601 26.9804 393.601 25.448H391.601C391.601 26.7316 391.368 27.9493 390.905 29.1086L392.761 29.8514ZM415.435 1.384V0.383999H414.435V1.384H415.435ZM433.675 1.384H434.675V0.383999H433.675V1.384ZM434.315 27.24L433.358 27.53L433.361 27.5383L434.315 27.24ZM436.427 31.272L435.624 31.8678L435.629 31.8742L435.633 31.8804L436.427 31.272ZM440.907 34.344L440.549 35.2779L440.556 35.2803L440.907 34.344ZM455.499 34.344L455.141 33.4101L455.499 34.344ZM459.979 31.272L459.188 30.6598L459.185 30.6636L459.979 31.272ZM462.155 27.24L463.11 27.5383L463.112 27.53L462.155 27.24ZM462.795 1.384V0.383999H461.795V1.384H462.795ZM480.971 1.384H481.971V0.383999H480.971V1.384ZM480.331 30.376L481.31 30.58L480.331 30.376ZM477.643 37.096L478.515 37.5855V37.5855L477.643 37.096ZM472.331 43.432L471.695 42.6601L472.331 43.432ZM463.179 47.976L463.47 48.9327L463.48 48.9297L463.179 47.976ZM433.163 47.976L432.865 48.9307L432.875 48.9335L433.163 47.976ZM423.883 43.432L423.247 44.204L423.255 44.2099L423.883 43.432ZM418.571 37.096L417.689 37.5674L417.694 37.5765L417.699 37.5855L418.571 37.096ZM416.011 30.376L415.029 30.5641L416.011 30.376ZM416.435 24.104V1.384H414.435V24.104H416.435ZM415.435 2.384H433.675V0.383999H415.435V2.384ZM432.675 1.384V22.696H434.675V1.384H432.675ZM432.675 22.696C432.675 24.4057 432.9 26.0189 433.358 27.53L435.272 26.95C434.877 25.6451 434.675 24.229 434.675 22.696H432.675ZM433.361 27.5383C433.825 29.0254 434.586 30.4686 435.624 31.8678L437.23 30.6762C436.306 29.4301 435.658 28.1852 435.269 26.9417L433.361 27.5383ZM435.633 31.8804C436.759 33.3481 438.427 34.4651 440.549 35.2779L441.265 33.4101C439.376 32.6869 438.058 31.7559 437.221 30.6636L435.633 31.8804ZM440.556 35.2803C442.745 36.1011 445.323 36.496 448.267 36.496V34.496C445.493 34.496 443.165 34.1229 441.258 33.4077L440.556 35.2803ZM448.267 36.496C451.169 36.496 453.708 36.1008 455.857 35.2779L455.141 33.4101C453.28 34.1232 450.997 34.496 448.267 34.496V36.496ZM455.857 35.2779C457.979 34.4651 459.647 33.3481 460.773 31.8804L459.185 30.6636C458.348 31.7559 457.03 32.6869 455.141 33.4101L455.857 35.2779ZM460.77 31.8842C461.854 30.4831 462.642 29.0346 463.109 27.5383L461.201 26.9417C460.815 28.1761 460.152 29.4156 459.188 30.6598L460.77 31.8842ZM463.112 27.53C463.57 26.0189 463.795 24.4057 463.795 22.696H461.795C461.795 24.229 461.593 25.6451 461.198 26.95L463.112 27.53ZM463.795 22.696V1.384H461.795V22.696H463.795ZM462.795 2.384H480.971V0.383999H462.795V2.384ZM479.971 1.384V24.104H481.971V1.384H479.971ZM479.971 24.104C479.971 26.1702 479.764 28.1924 479.352 30.172L481.31 30.58C481.751 28.4636 481.971 26.3045 481.971 24.104H479.971ZM479.352 30.172C478.952 32.0929 478.102 34.2359 476.771 36.6065L478.515 37.5855C479.915 35.0921 480.857 32.7551 481.31 30.58L479.352 30.172ZM476.771 36.6065C475.467 38.9293 473.777 40.9459 471.695 42.6601L472.967 44.2039C475.237 42.3341 477.088 40.1267 478.515 37.5855L476.771 36.6065ZM471.695 42.6601C469.653 44.3421 466.733 45.8073 462.878 47.0223L463.48 48.9297C467.476 47.6701 470.657 46.1059 472.967 44.2039L471.695 42.6601ZM462.888 47.0193C459.077 48.1792 454.656 48.768 449.611 48.768V50.768C454.806 50.768 459.43 50.1621 463.47 48.9327L462.888 47.0193ZM449.611 48.768H447.051V50.768H449.611V48.768ZM447.051 48.768C441.832 48.768 437.304 48.1784 433.451 47.0185L432.875 48.9335C436.958 50.1629 441.688 50.768 447.051 50.768V48.768ZM433.461 47.0213C429.563 45.8059 426.598 44.3394 424.511 42.6541L423.255 44.2099C425.605 46.1086 428.827 47.6715 432.865 48.9307L433.461 47.0213ZM424.519 42.6601C422.437 40.9459 420.747 38.9293 419.443 36.6065L417.699 37.5855C419.126 40.1267 420.977 42.3341 423.247 44.2039L424.519 42.6601ZM419.453 36.6246C418.161 34.2081 417.353 32.0651 416.993 30.1879L415.029 30.5641C415.437 32.6976 416.335 35.0346 417.689 37.5674L419.453 36.6246ZM416.993 30.1879C416.622 28.2485 416.435 26.221 416.435 24.104H414.435C414.435 26.339 414.632 28.4928 415.029 30.5641L416.993 30.1879ZM486.572 1.384V0.383999H485.572V1.384H486.572ZM506.924 1.384L507.624 0.669489L507.332 0.383999H506.924V1.384ZM534.572 28.456L533.872 29.1705L535.572 30.8347V28.456H534.572ZM534.572 1.384V0.383999H533.572V1.384H534.572ZM552.62 1.384H553.62V0.383999H552.62V1.384ZM552.62 49V50H553.62V49H552.62ZM534.444 49L533.749 49.7186L534.039 50H534.444V49ZM504.62 20.136L505.315 19.4174L503.62 17.7765V20.136H504.62ZM504.62 49V50H505.62V49H504.62ZM486.572 49H485.572V50H486.572V49ZM486.572 2.384H506.924V0.383999H486.572V2.384ZM506.224 2.09851L533.872 29.1705L535.272 27.7415L507.624 0.669489L506.224 2.09851ZM535.572 28.456V1.384H533.572V28.456H535.572ZM534.572 2.384H552.62V0.383999H534.572V2.384ZM551.62 1.384V49H553.62V1.384H551.62ZM552.62 48H534.444V50H552.62V48ZM535.139 48.2814L505.315 19.4174L503.925 20.8546L533.749 49.7186L535.139 48.2814ZM503.62 20.136V49H505.62V20.136H503.62ZM504.62 48H486.572V50H504.62V48ZM487.572 49V1.384H485.572V49H487.572ZM558.76 49H557.76V50H558.76V49ZM558.76 1.384V0.383999H557.76V1.384H558.76ZM606.632 2.664L606.835 1.68502L606.632 2.664ZM616.552 6.056L616.063 6.92876V6.92876L616.552 6.056ZM622.695 11.176L621.91 11.7946L621.918 11.8047L622.695 11.176ZM626.023 17.256L626.984 16.976L626.023 17.256ZM626.088 32.424L625.122 32.1626L625.12 32.172L625.117 32.1815L626.088 32.424ZM622.951 38.632L622.153 38.0293L622.146 38.0399L622.951 38.632ZM616.935 44.008L617.448 44.8668L617.452 44.8642L616.935 44.008ZM607.016 47.592L606.796 46.6163L606.794 46.6168L607.016 47.592ZM576.935 13.864V12.864H575.935V13.864H576.935ZM576.935 36.392H575.935V37.392H576.935V36.392ZM559.76 49V1.384H557.76V49H559.76ZM558.76 2.384H592.552V0.383999H558.76V2.384ZM592.552 2.384C597.791 2.384 602.414 2.80672 606.428 3.64298L606.835 1.68502C602.657 0.81461 597.894 0.383999 592.552 0.383999V2.384ZM606.428 3.64298C610.465 4.48404 613.665 5.58728 616.063 6.92876L617.04 5.18324C614.403 3.70872 610.99 2.55062 606.835 1.68502L606.428 3.64298ZM616.063 6.92876C618.481 8.28079 620.423 9.90536 621.91 11.7946L623.481 10.5574C621.811 8.43597 619.657 6.64721 617.04 5.18324L616.063 6.92876ZM621.918 11.8047C623.473 13.728 624.51 15.6388 625.063 17.536L626.984 16.976C626.342 14.7772 625.161 12.6346 623.473 10.5473L621.918 11.8047ZM625.063 17.536C625.631 19.4829 625.919 21.6062 625.919 23.912H627.919C627.919 21.4391 627.61 19.1251 626.984 16.976L625.063 17.536ZM625.919 23.912V25.832H627.919V23.912H625.919ZM625.919 25.832C625.919 28.0996 625.652 30.2083 625.122 32.1626L627.053 32.6854C627.633 30.5437 627.919 28.2577 627.919 25.832H625.919ZM625.117 32.1815C624.645 34.0718 623.67 36.0209 622.153 38.0294L623.75 39.2346C625.39 37.0617 626.506 34.8722 627.058 32.6665L625.117 32.1815ZM622.146 38.0399C620.696 40.0129 618.794 41.7188 616.419 43.1518L617.452 44.8642C620.027 43.3105 622.135 41.4325 623.757 39.2241L622.146 38.0399ZM616.423 43.1492C614.116 44.5253 610.922 45.6902 606.796 46.6163L607.235 48.5677C611.472 47.6165 614.891 46.392 617.448 44.8668L616.423 43.1492ZM606.794 46.6168C602.745 47.5351 598.022 48 592.615 48V50C598.131 50 603.008 49.5263 607.237 48.5672L606.794 46.6168ZM592.615 48H558.76V50H592.615V48ZM575.935 13.864V36.392H577.935V13.864H575.935ZM576.935 37.392H590.44V35.392H576.935V37.392ZM590.44 37.392C596.379 37.392 601.005 36.4582 604.174 34.453C607.421 32.399 609.039 29.2823 609.039 25.256H607.039C607.039 28.6537 605.725 31.105 603.105 32.7629C600.407 34.4698 596.233 35.392 590.44 35.392V37.392ZM609.039 25.256V24.872H607.039V25.256H609.039ZM609.039 24.872C609.039 20.8832 607.416 17.7986 604.17 15.7682C601.002 13.7867 596.378 12.864 590.44 12.864V14.864C596.234 14.864 600.411 15.7759 603.109 17.4638C605.73 19.1028 607.039 21.5222 607.039 24.872H609.039ZM590.44 12.864H576.935V14.864H590.44V12.864Z" fill="white"/>
</svg>
